<?xml version="1.0" standalone="no"?>
<!DOCTYPE svg PUBLIC "-//W3C//DTD SVG 20010904//EN"
 "http://www.w3.org/TR/2001/REC-SVG-20010904/DTD/svg10.dtd">
<svg version="1.0" xmlns="http://www.w3.org/2000/svg"
 width="500.000000pt" height="500.000000pt" viewBox="0 0 500.000000 500.000000"
 preserveAspectRatio="xMidYMid meet">
<metadata>
Created by potrace 1.14, written by Peter Selinger 2001-2017
</metadata>
<g transform="translate(0.000000,500.000000) scale(0.100000,-0.100000)"
fill="#000000" stroke="none">
<path d="M1516 4450 c-50 -16 -96 -54 -119 -100 l-22 -45 0 -1865 c-1 -1110 3
-1874 8 -1886 12 -28 40 -41 123 -55 59 -10 249 -8 294 4 57 15 71 22 84 43
14 20 16 109 16 744 l0 720 293 1 c289 1 321 2 427 13 222 24 421 86 598 187
217 124 376 304 476 537 79 183 105 333 101 577 -2 142 -7 198 -23 266 -69
284 -212 495 -435 642 -170 113 -314 165 -557 202 -25 4 -54 10 -65 13 -35 9
-1169 12 -1199 2z m1134 -441 c275 -46 471 -207 553 -452 32 -93 42 -168 41
-302 -1 -134 -10 -192 -46 -304 -65 -195 -194 -340 -380 -426 -151 -70 -203
-77 -580 -82 l-338 -5 0 797 0 796 323 -2 c252 -2 345 -6 427 -20z"/>
</g>
</svg>
