<svg width="1396" height="538" viewBox="0 0 1396 538" fill="none" xmlns="http://www.w3.org/2000/svg">
<g clip-path="url(#clip0_9789_445)">
<path d="M1211.8 43.2984C1227.23 49.6686 1241.81 57.3128 1255.95 66.2311C1350.68 124.837 1410.69 239.075 1393.12 348.218C1375.12 459.059 1256.81 616.614 1139.79 639.547C1101.64 647.191 1062.63 636.574 1025.34 625.108C962.752 605.997 904.026 574.996 842.3 557.159C818.296 550.364 792.148 548.666 769 558.009C728.707 574.146 718.848 608.97 701.702 644.218C682.412 684.138 649.835 717.688 610.399 738.497C529.383 780.965 424.792 761.005 349.777 715.14C238.327 647.191 198.463 513.417 235.327 391.959C244.757 360.533 259.76 329.532 284.622 307.448C327.059 269.227 390.928 262.432 446.653 276.447C485.232 286.214 520.381 304.9 553.816 325.285C581.25 342.272 606.541 365.629 640.404 365.629C708.989 366.054 729.993 278.57 751.854 229.732C780.574 165.181 829.012 108.699 889.023 70.9025C985.899 9.32416 1106.35 -1.2928 1211.8 43.2984Z" fill="url(#paint0_linear_9789_445)"/>
<path d="M1211.84 43.5566C1227.26 49.9254 1241.83 57.5681 1255.97 66.4845C1350.65 125.078 1410.64 239.293 1393.07 348.414C1375.08 459.232 1256.82 616.756 1139.86 639.684C1101.72 647.326 1062.73 636.712 1025.46 625.248C962.904 606.141 904.206 575.146 842.509 557.313C818.515 550.519 792.38 548.821 769.243 558.162C728.969 574.297 719.114 609.113 701.976 644.354C682.696 684.266 650.133 717.809 610.716 738.614C529.738 781.073 425.195 761.117 350.216 715.261C238.818 647.326 198.972 513.58 235.819 392.147C245.245 360.727 260.241 329.732 285.091 307.653C327.508 269.439 391.347 262.646 447.046 276.658C485.607 286.423 520.74 305.105 554.16 325.486C581.581 342.469 606.859 365.822 640.707 365.822C709.26 366.246 730.254 278.781 752.105 229.952C780.812 165.414 829.227 108.944 889.21 71.155C986.041 9.58919 1106.44 -1.02561 1211.84 43.5566Z" fill="url(#paint1_radial_9789_445)"/>
<path d="M202.32 915.588C8.56875 770.773 121.733 451.839 308.198 354.163C378.068 317.641 459.512 303.626 537.956 313.819C608.684 323.161 696.986 346.943 769.429 319.764C824.296 298.955 849.587 247.569 878.307 200.854C958.036 70.9025 1159.07 46.6958 1258.95 169.853C1295.82 215.293 1310.82 278.57 1292.81 334.203C1250.38 463.305 1108.06 408.097 1027.48 477.32C995.329 504.924 986.756 560.132 967.895 597.079C948.606 634.875 925.03 670.973 899.739 705.372C846.586 777.992 781.86 844.242 707.274 895.628C558.531 998.4 372.496 1028.98 215.18 924.931C210.893 921.958 206.607 918.985 202.32 915.588Z" fill="url(#paint2_linear_9789_445)"/>
<path d="M202.32 915.588C8.56875 770.773 121.733 451.839 308.198 354.163C378.068 317.641 459.512 303.626 537.956 313.819C608.684 323.161 696.986 346.943 769.429 319.764C824.296 298.955 849.587 247.569 878.307 200.854C958.036 70.9025 1159.07 46.6958 1258.95 169.853C1295.82 215.293 1310.82 278.57 1292.81 334.203C1250.38 463.305 1108.06 408.097 1027.48 477.32C995.329 504.924 986.756 560.132 967.895 597.079C948.606 634.875 925.03 670.973 899.739 705.372C846.586 777.992 781.86 844.242 707.274 895.628C558.531 998.4 372.496 1028.98 215.18 924.931C210.893 921.958 206.607 918.985 202.32 915.588Z" fill="url(#paint3_radial_9789_445)"/>
</g>
<g clip-path="url(#clip1_9789_445)">
<path d="M1010.27 53.8335C1024.31 59.685 1037.58 66.7067 1050.45 74.8988C1136.65 128.732 1191.26 233.669 1175.27 333.925C1158.89 435.74 1051.23 580.467 944.74 601.532C910.024 608.554 874.528 598.802 840.593 588.269C783.643 570.715 730.204 542.237 674.034 525.853C652.191 519.612 628.397 518.051 607.333 526.633C570.667 541.457 561.695 573.445 546.093 605.824C528.54 642.493 498.895 673.311 463.008 692.426C389.286 731.435 294.11 713.101 225.848 670.97C124.431 608.554 88.1549 485.673 121.701 374.105C130.282 345.237 143.934 316.76 166.558 296.475C205.175 261.366 263.295 255.125 314.003 267.998C349.109 276.97 381.095 294.134 411.52 312.859C436.484 328.463 459.498 349.919 490.313 349.919C552.724 350.309 571.837 269.948 591.73 225.087C617.865 165.792 661.942 113.909 716.552 79.1899C804.707 22.6256 914.315 12.8731 1010.27 53.8335Z" fill="url(#paint4_linear_9789_445)"/>
<path d="M1010.3 54.0706C1024.34 59.9209 1037.6 66.9412 1050.46 75.1316C1136.63 128.954 1191.21 233.87 1175.22 334.105C1158.85 435.9 1051.24 580.597 944.803 601.658C910.104 608.678 874.624 598.928 840.704 588.397C783.781 570.847 730.367 542.375 674.224 525.994C652.39 519.754 628.607 518.194 607.553 526.774C570.904 541.595 561.937 573.577 546.342 605.948C528.797 642.61 499.166 673.422 463.296 692.533C389.608 731.535 294.476 713.204 226.247 671.082C124.877 608.678 88.6177 485.822 122.148 374.277C130.725 345.415 144.371 316.944 166.984 296.663C205.583 261.561 263.676 255.321 314.361 268.191C349.45 277.162 381.421 294.323 411.832 313.044C436.784 328.644 459.787 350.095 490.588 350.095C552.97 350.485 572.074 270.141 591.958 225.289C618.08 166.006 662.137 114.134 716.721 79.4218C804.835 22.869 914.392 13.1185 1010.3 54.0706Z" fill="url(#paint5_radial_9789_445)"/>
<path d="M91.6659 855.097C-84.644 722.073 18.3335 429.109 188.012 339.386C251.593 305.837 325.706 292.964 397.088 302.326C461.449 310.909 541.802 332.754 607.724 307.788C657.652 288.673 680.666 241.471 706.8 198.56C779.353 79.1899 962.294 56.9542 1053.18 170.083C1086.72 211.824 1100.38 269.948 1083.99 321.051C1045.38 439.641 915.876 388.928 842.544 452.515C813.289 477.871 805.487 528.584 788.324 562.523C770.771 597.241 749.318 630.4 726.304 661.998C677.936 728.705 619.036 789.56 551.164 836.762C415.811 931.166 246.522 959.253 103.368 863.679C99.4673 860.948 95.5666 858.218 91.6659 855.097Z" fill="url(#paint6_linear_9789_445)"/>
<path d="M91.6659 855.097C-84.644 722.073 18.3335 429.109 188.012 339.386C251.593 305.837 325.706 292.964 397.088 302.326C461.449 310.909 541.802 332.754 607.724 307.788C657.652 288.673 680.666 241.471 706.8 198.56C779.353 79.1899 962.294 56.9542 1053.18 170.083C1086.72 211.824 1100.38 269.948 1083.99 321.051C1045.38 439.641 915.876 388.928 842.544 452.515C813.289 477.871 805.487 528.584 788.324 562.523C770.771 597.241 749.318 630.4 726.304 661.998C677.936 728.705 619.036 789.56 551.164 836.762C415.811 931.166 246.522 959.253 103.368 863.679C99.4673 860.948 95.5666 858.218 91.6659 855.097Z" fill="url(#paint7_radial_9789_445)"/>
<path d="M522.5 209C505.103 209 491 194.897 491 177.5C491 160.103 505.103 146 522.5 146C539.897 146 554 160.103 554 177.5C554 194.897 539.897 209 522.5 209Z" fill="url(#paint8_linear_9789_445)"/>
</g>
<defs>
<linearGradient id="paint0_linear_9789_445" x1="156.366" y1="776.404" x2="1773.4" y2="-115" gradientUnits="userSpaceOnUse">
<stop stop-color="#FF9370"/>
<stop offset="1" stop-color="#FFDF00"/>
</linearGradient>
<radialGradient id="paint1_radial_9789_445" cx="0" cy="0" r="1" gradientUnits="userSpaceOnUse" gradientTransform="translate(814.531 -99.209) rotate(79.6257) scale(1313.6 1235.52)">
<stop stop-color="#FEBB40"/>
<stop offset="0.5576" stop-color="#EC4C76"/>
<stop offset="0.9726" stop-color="#D60B52"/>
</radialGradient>
<linearGradient id="paint2_linear_9789_445" x1="1277.45" y1="-450.926" x2="249.503" y2="1208.7" gradientUnits="userSpaceOnUse">
<stop stop-color="#FFDF00"/>
<stop offset="1" stop-color="#FF9370"/>
</linearGradient>
<radialGradient id="paint3_radial_9789_445" cx="0" cy="0" r="1" gradientUnits="userSpaceOnUse" gradientTransform="translate(973.512 161.069) rotate(-122.724) scale(1401.84 2365.81)">
<stop stop-color="#FEBB40"/>
<stop offset="0.5576" stop-color="#EC4C76"/>
<stop offset="0.9726" stop-color="#D60B52"/>
</radialGradient>
<linearGradient id="paint4_linear_9789_445" x1="49.8479" y1="727.246" x2="1527.73" y2="-79.8282" gradientUnits="userSpaceOnUse">
<stop stop-color="#FF9370"/>
<stop offset="1" stop-color="#FFDF00"/>
</linearGradient>
<radialGradient id="paint5_radial_9789_445" cx="0" cy="0" r="1" gradientUnits="userSpaceOnUse" gradientTransform="translate(648.764 -77.0703) rotate(79.7207) scale(1206.28 1124.64)">
<stop stop-color="#FEBB40"/>
<stop offset="0.5576" stop-color="#EC4C76"/>
<stop offset="0.9726" stop-color="#D60B52"/>
</radialGradient>
<linearGradient id="paint6_linear_9789_445" x1="1070.01" y1="-400.149" x2="121.838" y2="1116.36" gradientUnits="userSpaceOnUse">
<stop stop-color="#FFDF00"/>
<stop offset="1" stop-color="#FF9370"/>
</linearGradient>
<radialGradient id="paint7_radial_9789_445" cx="0" cy="0" r="1" gradientUnits="userSpaceOnUse" gradientTransform="translate(793.436 162.015) rotate(-122.48) scale(1284.19 2158.72)">
<stop stop-color="#FEBB40"/>
<stop offset="0.5576" stop-color="#EC4C76"/>
<stop offset="0.9726" stop-color="#D60B52"/>
</radialGradient>
<linearGradient id="paint8_linear_9789_445" x1="448.913" y1="229.344" x2="599.113" y2="123.255" gradientUnits="userSpaceOnUse">
<stop stop-color="#EC4C76"/>
<stop offset="0.5183" stop-color="#FEBB40"/>
<stop offset="1" stop-color="white"/>
</linearGradient>
<clipPath id="clip0_9789_445">
<rect width="511" height="393" fill="white" transform="translate(885 16)"/>
</clipPath>
<clipPath id="clip1_9789_445">
<rect width="1178" height="538" fill="white" transform="matrix(-1 0 0 1 1178 0)"/>
</clipPath>
</defs>
</svg>
