<svg width="40" height="60" viewBox="0 0 40 60" fill="none" xmlns="http://www.w3.org/2000/svg">
<path d="M20 0C9.35683 0 0.726929 8.6299 0.726929 19.2731C0.726929 28.0863 6.64583 35.5192 14.7239 37.8147C15.6458 38.0767 16.3297 38.8896 16.3297 39.848V42.401C16.3297 43.5056 15.4343 44.401 14.3297 44.401H10.0639C8.95936 44.401 8.06393 45.2964 8.06393 46.401V49.738C8.06393 50.8426 8.95936 51.738 10.0639 51.738H14.3296C15.4342 51.738 16.3296 52.6334 16.3296 53.738V58C16.3296 59.1046 17.2251 60 18.3296 60H21.6666C22.7712 60 23.6666 59.1046 23.6666 58V53.738C23.6666 52.6334 24.5621 51.738 25.6666 51.738H29.9323C31.0369 51.738 31.9323 50.8426 31.9323 49.738V46.401C31.9323 45.2964 31.0369 44.401 29.9323 44.401H25.6667C24.5621 44.401 23.6667 43.5056 23.6667 42.401V38.197C32.5557 36.4836 39.2731 28.6619 39.2731 19.2731C39.2731 8.6299 30.6432 0 20 0ZM20 7.6639C26.4116 7.6639 31.6092 12.8615 31.6092 19.2731C31.6092 25.6847 26.4116 30.8823 20 30.8823C13.5884 30.8823 8.39083 25.6847 8.39083 19.2731C8.39083 12.8615 13.5885 7.6639 20 7.6639Z" fill="#FF8787"/>
</svg>
